<svg id="Capa_1" enable-background="new 0 0 511.891 511.891" height="512" viewBox="0 0 511.891 511.891" width="512" xmlns="http://www.w3.org/2000/svg"><g><path d="m476.536 226.297-35.188-8.803v-54.945c0-89.455-72.777-162.232-162.232-162.232h-46.342c-89.455 0-162.232 72.777-162.232 162.232v54.945l-35.188 8.803c-20.816 5.208-35.354 23.831-35.354 45.289v64.63c0 21.458 14.538 40.081 35.354 45.289l35.669 8.923c1.951 8.733 9.75 15.286 19.062 15.286h36.645c16.543 0 30.002-13.459 30.002-30.002v-143.088c0-16.543-13.459-30.003-30.002-30.003h-7.467v-35.929c0-66.542 54.137-120.679 120.68-120.679h32.004c24.571 0 48.218 7.345 68.384 21.241 3.412 2.35 8.08 1.489 10.432-1.92 2.351-3.411 1.49-8.081-1.92-10.432-22.681-15.629-49.271-23.89-76.896-23.89h-32.004c-53.959 0-100.657 31.664-122.502 77.384h-21.58c21.619-54.467 74.841-93.081 136.914-93.081h46.342c62.073 0 115.295 38.613 136.914 93.081h-21.565c-5.29-11.116-12.104-21.543-20.33-30.955-2.725-3.118-7.464-3.437-10.582-.711-3.119 2.726-3.438 7.464-.711 10.583 19.207 21.974 29.785 50.164 29.785 79.377v35.929h-7.467c-16.543 0-30.002 13.459-30.002 30.003v143.088c0 13.4 8.832 24.774 20.979 28.614v48.208c0 9.023-7.34 16.363-16.362 16.363h-11.622c-4.143 0-7.5 3.358-7.5 7.5s3.357 7.5 7.5 7.5h11.622c13.219 0 24.546-8.225 29.153-19.823h13.36c-5.059 18.699-22.165 32.5-42.442 32.5h-135.056c-8.661 0-15.708-7.046-15.708-15.708v-25.784c0-6.832 5.559-12.391 12.391-12.391h38.33c6.832 0 12.391 5.559 12.391 12.391v19.552c0 5.109 4.156 9.265 9.265 9.265h34.73c4.143 0 7.5-3.358 7.5-7.5s-3.357-7.5-7.5-7.5h-28.995v-13.817c0-15.103-12.287-27.391-27.391-27.391h-38.33c-15.104 0-27.391 12.288-27.391 27.391v25.786c0 16.933 13.775 30.708 30.708 30.708h135.055c32.516 0 58.969-26.453 58.969-58.968v-46.891h2.99c9.312 0 17.112-6.552 19.062-15.286l35.669-8.923c20.816-5.208 35.354-23.832 35.354-45.289v-64.63c.001-21.459-14.537-40.082-35.354-45.29zm-349.806-8.676c8.272 0 15.002 6.73 15.002 15.003v143.088c0 8.272-6.729 15.002-15.002 15.002h-36.644c-2.506 0-4.544-2.039-4.544-4.544v-49.457c0-4.142-3.357-7.5-7.5-7.5s-7.5 3.358-7.5 7.5v38.132l-31.547-7.892c-14.128-3.534-23.995-16.173-23.995-30.736v-64.63c0-14.563 9.867-27.203 23.995-30.737l31.547-7.892v71.794c0 4.142 3.357 7.5 7.5 7.5s7.5-3.358 7.5-7.5v-139.3h18.737c-.004.414-.016.826-.016 1.241v39.644c0 6.223 5.062 11.285 11.285 11.285h11.182zm-15.383-94.224c-2.924 8.662-4.989 17.714-6.108 27.054h-19.197c.759-9.287 2.385-18.33 4.794-27.054zm309.707 0c2.409 8.723 4.035 17.767 4.794 27.054h-19.203c-1.112-9.237-3.168-18.3-6.115-27.054zm-17.24 325.677h-12.678v-15.491h12.678zm0-30.491h-12.678v-12.869h12.678zm22.535-32.413c0 2.505-2.038 4.544-4.544 4.544h-36.645c-8.272 0-15.002-6.73-15.002-15.002v-143.088c0-8.272 6.729-15.003 15.002-15.003h11.182c6.223 0 11.285-5.062 11.285-11.285v-39.644c0-.414-.01-.827-.014-1.241h18.736zm70.542-49.953c0 14.563-9.867 27.203-23.995 30.737l-31.547 7.892v-141.889l31.547 7.892c14.128 3.534 23.995 16.174 23.995 30.737z"/><path d="m306.52 356.996c1.341.991 2.903 1.469 4.452 1.469 2.298 0 4.566-1.053 6.037-3.042 2.462-3.331 1.758-8.027-1.573-10.489-41.529-30.696-97.337-30.697-138.868 0-3.331 2.462-4.035 7.158-1.573 10.489 2.463 3.332 7.159 4.036 10.489 1.573 36.196-26.755 84.835-26.756 121.036 0z"/><path d="m203.315 381.121c25.531-18.872 59.841-18.872 85.372 0 3.33 2.462 8.028 1.758 10.489-1.573 2.462-3.331 1.758-8.027-1.573-10.489-30.865-22.814-72.339-22.814-103.204 0-3.331 2.462-4.035 7.158-1.573 10.489 1.471 1.99 3.739 3.042 6.037 3.042 1.549 0 3.112-.478 4.452-1.469z"/><path d="m212.23 393.184c-3.331 2.462-4.035 7.158-1.573 10.489 2.463 3.332 7.159 4.036 10.489 1.573 14.869-10.988 34.845-10.987 49.71 0 1.341.991 2.903 1.469 4.452 1.469 2.298 0 4.566-1.053 6.037-3.042 2.462-3.331 1.758-8.027-1.573-10.489-20.199-14.931-47.342-14.93-67.542 0z"/></g></svg>