<svg height="480pt" viewBox="0 -8 480 480" width="480pt" xmlns="http://www.w3.org/2000/svg"><path d="m376 408h-304v-368c0-17.671875 14.328125-32 32-32h336c-17.671875 0-32 14.328125-32 32v336c0 17.671875-14.328125 32-32 32zm0 0" fill="#87ced9"/><path d="m80 408h296c17.671875 0 32-14.328125 32-32v-296zm0 0" fill="#71c4d1"/><path d="m472 56h-64v-16c0-17.671875 14.328125-32 32-32s32 14.328125 32 32zm0 0" fill="#4ba5c4"/><path d="m8 360v16c0 17.671875 14.328125 32 32 32h336c-17.671875 0-32-14.328125-32-32v-16zm0 0" fill="#a2e0e8"/><path d="m296.199219 336v120l32-24 32 24v-120zm0 0" fill="#e3584b"/><path d="m296.199219 336v19.617188c4.789062 3.582031 11.183593 4.171874 16.542969 1.527343 2.304687 6.507813 8.457031 10.855469 15.359374 10.855469 6.902344 0 13.054688-4.347656 15.355469-10.855469 5.441407 2.6875 11.9375 2.039063 16.742188-1.664062v-19.480469zm0 0" fill="#d64740"/><path d="m365.167969 288.617188c2.964843-6.234376 1.6875-13.65625-3.1875-18.539063s-12.296875-6.175781-18.53125-3.222656c-2.304688-6.5-8.457031-10.84375-15.351563-10.84375-6.898437 0-13.050781 4.34375-15.355468 10.84375-6.234376-2.957031-13.65625-1.667969-18.535157 3.21875-4.875 4.886719-6.144531 12.3125-3.175781 18.542969-6.5 2.320312-10.839844 8.480468-10.839844 15.382812s4.339844 13.0625 10.839844 15.382812c-2.96875 6.230469-1.699219 13.65625 3.175781 18.542969 4.878907 4.886719 12.300781 6.175781 18.535157 3.21875 2.304687 6.5 8.457031 10.84375 15.355468 10.84375 6.894532 0 13.046875-4.34375 15.351563-10.84375 6.234375 2.953125 13.65625 1.660157 18.53125-3.222656s6.152343-12.304687 3.1875-18.539063c6.492187-2.328124 10.824219-8.484374 10.824219-15.382812s-4.332032-13.054688-10.824219-15.382812zm0 0" fill="#ffc24f"/><path d="m365.167969 288.617188c2.570312-5.261719 2.058593-11.507813-1.328125-16.28125-8.726563 32.054687-32.382813 57.933593-63.527344 69.496093 4.066406 1.472657 8.554688 1.222657 12.429688-.6875 2.304687 6.507813 8.457031 10.855469 15.359374 10.855469 6.902344 0 13.054688-4.347656 15.355469-10.855469 6.234375 2.957031 13.660157 1.667969 18.535157-3.21875s6.148437-12.3125 3.175781-18.542969c6.492187-2.328124 10.824219-8.484374 10.824219-15.382812s-4.332032-13.054688-10.824219-15.382812zm0 0" fill="#ffba38"/><g fill="#5eb3d1"><path d="m264 64h32v16h-32zm0 0"/><path d="m184 64h64v16h-64zm0 0"/><path d="m160 104h160v16h-160zm0 0"/><path d="m120 152h40v16h-40zm0 0"/><path d="m120 192h88v16h-88zm0 0"/><path d="m176 152h184v16h-184zm0 0"/><path d="m224 192h136v16h-136zm0 0"/><path d="m120 232h160v16h-160zm0 0"/><path d="m120 272h136v16h-136zm0 0"/></g><path d="m440 0h-336c-22.082031.0273438-39.972656 17.917969-40 40v312h-56c-4.417969 0-8 3.582031-8 8v16c.0273438 22.082031 17.917969 39.972656 40 40h248.191406v40c0 3.03125 1.710938 5.800781 4.421875 7.15625 2.710938 1.355469 5.953125 1.0625 8.378907-.757812l27.199218-20.398438 27.199219 20.398438c1.382813 1.042968 3.070313 1.605468 4.800781 1.601562 1.242188.011719 2.46875-.261719 3.585938-.800781 2.722656-1.363281 4.433594-4.15625 4.414062-7.199219v-40h7.808594c22.082031-.027344 39.972656-17.917969 40-40v-312h56c4.417969 0 8-3.582031 8-8v-16c-.027344-22.082031-17.917969-39.9726562-40-40zm-151.808594 400h-248.191406c-13.253906 0-24-10.746094-24-24v-8h272.191406zm64 40-19.199218-14.398438c-2.84375-2.136718-6.753907-2.136718-9.601563 0l-19.199219 14.398438v-89.351562c1.546875.121093 3.101563.09375 4.640625-.089844 4.617188 5.957031 11.730469 9.441406 19.265625 9.441406s14.644532-3.484375 19.261719-9.441406c1.59375.191406 3.203125.222656 4.800781.089844zm10.289063-128.160156c-2.132813.757812-3.847657 2.386718-4.710938 4.476562-.867187 2.09375-.808593 4.453125.167969 6.5 1.511719 3.171875.871094 6.953125-1.605469 9.445313-2.480469 2.492187-6.257812 3.15625-9.4375 1.660156-2.042969-.976563-4.40625-1.039063-6.5-.175781-2.097656.867187-3.722656 2.582031-4.484375 4.71875-1.167968 3.3125-4.300781 5.53125-7.8125 5.53125-3.515625 0-6.648437-2.21875-7.816406-5.53125-.757812-2.136719-2.386719-3.851563-4.480469-4.71875-2.097656-.863282-4.460937-.800782-6.503906.175781-3.179687 1.496094-6.957031.832031-9.433594-1.660156-2.480469-2.492188-3.121093-6.273438-1.605469-9.445313.972657-2.042968 1.035157-4.40625.167969-6.496094-.863281-2.09375-2.574219-3.71875-4.707031-4.480468-3.316406-1.179688-5.535156-4.320313-5.535156-7.839844s2.21875-6.660156 5.535156-7.839844c2.132812-.761718 3.839844-2.386718 4.703125-4.476562.867187-2.089844.804687-4.449219-.164063-6.492188-1.523437-3.171875-.882812-6.957031 1.597657-9.453125 2.476562-2.492187 6.257812-3.160156 9.441406-1.660156 2.042969.976563 4.40625 1.039063 6.503906.175781 2.09375-.867187 3.722657-2.582031 4.480469-4.71875 1.167969-3.3125 4.300781-5.53125 7.816406-5.53125 3.511719 0 6.644532 2.21875 7.8125 5.53125.761719 2.136719 2.386719 3.851563 4.484375 4.71875 2.09375.863282 4.457031.800782 6.5-.175781 3.179688-1.496094 6.957031-.832031 9.4375 1.660156 2.476563 2.492188 3.117188 6.273438 1.605469 9.445313-.976562 2.046875-1.035156 4.40625-.167969 6.5.863281 2.089844 2.578125 3.71875 4.710938 4.476562 3.308593 1.1875 5.519531 4.324219 5.519531 7.839844s-2.210938 6.652344-5.519531 7.839844zm44.902343-294.839844c-.453124.640625-.855468 1.320312-1.269531 1.992188-.855469 1.367187-1.621093 2.78125-2.304687 4.238281-.359375.800781-.695313 1.539062-1.007813 2.320312-.59375 1.570313-1.09375 3.171875-1.488281 4.800781-.183594.746094-.417969 1.464844-.558594 2.222657-.484375 2.449219-.734375 4.933593-.753906 7.425781v336c0 13.253906-10.746094 24-24 24-2.667969-.050781-5.304688-.546875-7.808594-1.472656v-55.648438c4.976563-5.234375 7.324219-12.433594 6.402344-19.597656 5.945312-4.628906 9.421875-11.746094 9.421875-19.28125s-3.476563-14.652344-9.421875-19.28125c.945312-7.46875-1.613281-14.957031-6.929688-20.292969-5.316406-5.332031-12.796874-7.910156-20.273437-6.984375-4.617187-5.957031-11.726563-9.441406-19.261719-9.441406s-14.648437 3.484375-19.265625 9.441406c-7.472656-.921875-14.953125 1.65625-20.269531 6.988282-5.3125 5.332031-7.871094 12.820312-6.929688 20.289062-5.945312 4.628906-9.425781 11.746094-9.425781 19.28125s3.480469 14.652344 9.425781 19.28125c-.945312 7.265625 1.476563 14.566406 6.574219 19.832031v8.886719h-208.238281v-312c0-13.253906 10.746094-24 24-24h304c-.222656.3125-.390625.671875-.617188 1zm56.617188 31h-48v-8c0-13.253906 10.746094-24 24-24s24 10.746094 24 24zm0 0"/><path d="m264 64h32v16h-32zm0 0"/><path d="m184 64h64v16h-64zm0 0"/><path d="m160 104h160v16h-160zm0 0"/><path d="m120 152h40v16h-40zm0 0"/><path d="m120 192h88v16h-88zm0 0"/><path d="m176 152h184v16h-184zm0 0"/><path d="m224 192h136v16h-136zm0 0"/><path d="m120 232h160v16h-160zm0 0"/><path d="m120 272h136v16h-136zm0 0"/></svg>