<svg height="512" viewBox="0 0 512 512" width="512" xmlns="http://www.w3.org/2000/svg"><g id="filled_outline" data-name="filled outline"><path d="m48 96h336v304h-336z" fill="#ea9d2d"/><path d="m256 176-40-16-40 16v-80h80z" fill="#007af6"/><rect fill="#c38325" height="32" rx="16" width="128" x="152" y="208"/><path d="m80 272h112v96h-112z" fill="#eaeae8"/><path d="m128 312h-24a8 8 0 0 1 0-16h24a8 8 0 0 1 0 16z" fill="#cbcbcb"/><path d="m152 344h-48a8 8 0 0 1 0-16h48a8 8 0 0 1 0 16z" fill="#cbcbcb"/><path d="m48 48h336v48h-336z" fill="#fbb540"/><path d="m176 48h80v48h-80z" fill="#41b2ff"/><circle cx="384" cy="392" fill="#02a437" r="80"/><path d="m400 360h-40a8 8 0 0 0 0 16h40a16 16 0 0 1 0 32h-28.686l2.343-2.343a8 8 0 0 0 -11.314-11.314l-16 16a8 8 0 0 0 0 11.314l16 16a8 8 0 0 0 11.314-11.314l-2.343-2.343h28.686a32 32 0 0 0 0-64z" fill="#027226"/><path d="m264 200h-96a24 24 0 0 0 0 48h96a24 24 0 0 0 0-48zm0 32h-96a8 8 0 0 1 0-16h96a8 8 0 0 1 0 16z"/><path d="m192 264h-112a8 8 0 0 0 -8 8v96a8 8 0 0 0 8 8h112a8 8 0 0 0 8-8v-96a8 8 0 0 0 -8-8zm-8 96h-96v-80h96z"/><path d="m104 312h24a8 8 0 0 0 0-16h-24a8 8 0 0 0 0 16z"/><path d="m104 344h48a8 8 0 0 0 0-16h-48a8 8 0 0 0 0 16z"/><path d="m392 304.368v-256.368a8 8 0 0 0 -8-8h-336a8 8 0 0 0 -8 8v352a8 8 0 0 0 8 8h249.462a88 88 0 1 0 94.538-103.632zm-128-248.368h112v32h-112zm-80 0h64v32h-64zm0 48h64v60.184l-29.029-11.612a8 8 0 0 0 -5.942 0l-29.029 11.612zm-128-48h112v32h-112zm240 336h-240v-288h112v72a8 8 0 0 0 10.971 7.428l37.029-14.812 37.029 14.812a8 8 0 0 0 10.971-7.428v-72h112v200.368a88.116 88.116 0 0 0 -80 87.632zm88 72a72 72 0 1 1 72-72 72.081 72.081 0 0 1 -72 72z"/><path d="m400 360h-40a8 8 0 0 0 0 16h40a16 16 0 0 1 0 32h-28.686l2.343-2.343a8 8 0 0 0 -11.314-11.314l-16 16a8 8 0 0 0 0 11.314l16 16a8 8 0 0 0 11.314-11.314l-2.343-2.343h28.686a32 32 0 0 0 0-64z"/></g></svg>