<?xml version="1.0" standalone="no"?>
<!DOCTYPE svg PUBLIC "-//W3C//DTD SVG 20010904//EN"
 "http://www.w3.org/TR/2001/REC-SVG-20010904/DTD/svg10.dtd">
<svg version="1.0" xmlns="http://www.w3.org/2000/svg"
 width="320.000000pt" height="320.000000pt" viewBox="0 0 320.000000 320.000000"
 preserveAspectRatio="xMidYMid meet">
<metadata>
Created by potrace 1.16, written by Peter Selinger 2001-2019
</metadata>
<g transform="translate(0.000000,320.000000) scale(0.100000,-0.100000)"
fill="#000000" stroke="none">
<path d="M2914 2617 l-282 -282 50 -70 c127 -179 205 -414 215 -648 l6 -118
34 33 35 33 -6 90 c-14 227 -88 445 -211 630 l-55 83 251 251 c143 143 249
256 247 265 -2 8 -115 -98 -284 -267z"/>
<path d="M1395 2470 c-34 -35 -37 -41 -24 -56 27 -33 305 -304 328 -321 22
-15 23 -15 12 5 -13 24 -14 33 -3 30 18 -5 52 15 52 30 0 15 2 15 10 2 5 -8
10 -10 10 -4 0 9 -335 354 -344 354 -1 0 -19 -18 -41 -40z"/>
<path d="M1507 2142 l-37 -38 93 -92 92 -91 42 37 42 38 -92 92 c-51 51 -95
92 -98 92 -3 0 -22 -17 -42 -38z"/>
<path d="M1817 1942 c-48 -48 -87 -90 -87 -94 0 -8 70 -78 79 -78 8 0 181 174
181 182 0 8 -71 78 -79 78 -3 0 -46 -39 -94 -88z"/>
<path d="M1406 1831 c-82 -81 -89 -91 -75 -107 22 -27 59 -64 65 -64 2 0 45
41 95 91 l91 91 -23 26 c-27 30 -52 51 -59 51 -3 0 -45 -40 -94 -88z"/>
<path d="M1617 1739 c-20 -17 -37 -37 -37 -44 0 -18 166 -185 183 -184 6 0 26
17 44 38 l32 37 -92 92 -92 92 -38 -31z"/>
<path d="M1507 1622 l-37 -38 199 -205 200 -204 42 44 41 43 -88 91 c-49 50
-93 94 -97 97 -4 4 -51 49 -105 101 -53 53 -102 98 -108 102 -6 3 -27 -11 -47
-31z"/>
<path d="M2936 1491 c-34 -35 -40 -49 -62 -152 -30 -140 -54 -211 -106 -314
-245 -487 -788 -754 -1323 -650 -145 28 -314 96 -438 176 l-49 32 -109 -109
c-94 -94 -109 -113 -109 -141 0 -18 3 -33 7 -33 3 0 51 45 105 100 64 64 104
97 113 94 8 -4 15 -11 15 -16 0 -6 -77 -87 -172 -179 -95 -93 -165 -169 -156
-169 9 0 89 74 179 165 90 91 168 165 174 165 6 0 40 -15 75 -34 538 -283
1217 -143 1598 329 82 101 98 126 153 233 48 94 95 231 118 344 10 47 30 198
26 198 0 0 -18 -17 -39 -39z"/>
<path d="M2268 1104 c-46 -25 -46 -55 2 -150 33 -63 41 -87 32 -96 -8 -8 -15
-8 -26 1 -8 7 -23 11 -32 9 -15 -3 -14 -6 4 -28 18 -22 23 -23 58 -15 24 7 43
19 52 35 14 24 12 30 -32 100 -25 41 -46 80 -46 87 0 19 42 43 66 37 29 -7 40
12 15 25 -27 15 -61 13 -93 -5z"/>
<path d="M833 1103 c-10 -3 -13 -39 -13 -130 0 -125 0 -125 23 -119 12 3 25 6
30 6 4 0 7 26 8 58 0 48 2 54 11 35 6 -13 19 -23 29 -23 9 0 24 -3 33 -6 10
-4 20 6 33 33 l18 38 3 -67 c2 -56 6 -68 22 -73 38 -12 43 2 36 103 -4 53 -8
97 -9 98 -1 1 -14 5 -28 9 -21 5 -32 1 -53 -22 -14 -15 -24 -33 -22 -39 2 -6
-2 -11 -9 -11 -7 0 -21 19 -31 41 -29 68 -47 83 -81 69z"/>
<path d="M2444 1099 c-15 -5 -23 -19 -28 -47 -4 -30 -11 -41 -28 -45 -18 -5
-20 -9 -10 -19 6 -6 12 -36 12 -65 0 -41 4 -54 19 -63 36 -19 136 -8 128 14
-4 11 -17 12 -53 1 -18 -6 -23 -1 -33 26 -22 64 -17 76 40 84 60 8 69 24 44
71 -20 37 -59 55 -91 43z"/>
<path d="M1626 1092 c-14 -3 -17 -10 -12 -34 3 -17 6 -66 6 -110 0 -77 1 -79
23 -76 20 3 22 8 19 48 -3 36 -1 43 9 33 18 -18 68 -16 75 2 11 28 24 15 24
-23 0 -21 6 -46 13 -56 18 -24 53 -17 48 9 -1 11 -6 58 -10 105 -5 77 -8 85
-27 88 -17 2 -26 -7 -44 -42 -24 -51 -36 -57 -49 -23 -17 42 -55 83 -75 79z"/>
<path d="M2054 1090 c-20 -8 -21 -17 -23 -119 l-2 -111 31 0 c29 0 30 2 30 42
l0 42 30 -41 c30 -41 67 -60 84 -43 6 6 -7 27 -32 54 -23 25 -42 48 -42 52 0
3 11 19 25 36 14 16 25 38 25 48 0 38 -73 62 -126 40z"/>
<path d="M1387 1063 c-26 -26 -29 -27 -41 -10 -12 15 -36 24 -36 12 0 -2 7
-20 16 -38 15 -31 15 -37 1 -63 -34 -62 -38 -76 -26 -90 19 -23 36 -16 52 24
9 20 16 31 16 25 1 -16 37 -53 51 -53 16 0 12 22 -15 71 l-24 46 29 46 c25 41
29 57 11 57 -4 0 -19 -12 -34 -27z"/>
<path d="M1883 1031 c-25 -64 -30 -130 -11 -149 7 -7 28 -12 48 -12 46 0 90
44 90 90 0 38 -27 88 -52 96 -10 3 -18 12 -18 20 0 8 -8 14 -17 14 -13 0 -25
-18 -40 -59z"/>
<path d="M1126 1038 c-21 -19 -26 -33 -28 -86 -4 -84 9 -92 100 -66 16 5 22 2
22 -10 0 -13 7 -17 28 -14 20 2 26 8 25 23 -2 11 -5 45 -8 75 -11 103 -10 100
-65 100 -37 0 -55 -6 -74 -22z"/>
<path d="M572 941 c-34 -32 -40 -44 -18 -35 9 3 20 -4 27 -18 27 -52 120 -167
187 -232 81 -79 94 -88 115 -80 38 14 27 38 -56 123 -106 109 -207 236 -207
261 0 17 -14 11 -48 -19z"/>
</g>
</svg>
